<svg fill="#1A1A1A" xmlns="http://www.w3.org/2000/svg"  viewBox="0 0 64 64" width="128px" height="128px"><path d="M 40.509766 4.6347656 C 39.410766 4.6347656 38.519531 5.5240469 38.519531 6.6230469 L 38.519531 7.1132812 L 38.09375 7.1132812 C 37.73275 7.1152812 37.394219 7.1583281 37.074219 7.2363281 C 36.630219 7.3463281 36.230766 7.5209531 35.884766 7.7519531 C 35.295766 7.3549531 34.627109 7.1382344 33.912109 7.1152344 C 33.832109 7.1132344 33.765219 7.1113281 33.699219 7.1113281 C 33.506219 7.1113281 33.314047 7.1198125 33.123047 7.1328125 C 32.805047 7.1568125 32.425625 7.1970156 32.015625 7.2910156 C 31.774625 7.1870156 31.507516 7.1289062 31.228516 7.1289062 L 27.855469 7.1289062 C 27.465469 7.1289062 27.103875 7.2415469 26.796875 7.4355469 C 26.316875 7.2215469 25.797766 7.1113281 25.259766 7.1113281 L 25.251953 7.1113281 C 24.608953 7.1133281 23.966172 7.1132813 23.326172 7.1132812 L 21.591797 7.1132812 L 20.994141 7.1113281 C 20.216141 7.1113281 19.494188 7.3384844 18.867188 7.7714844 C 18.229187 7.3364844 17.503516 7.1113281 16.728516 7.1113281 L 10.667969 7.1113281 C 10.505969 7.1113281 10.347266 7.1309688 10.197266 7.1679688 C 10.048266 7.1319688 9.893375 7.1132813 9.734375 7.1132812 L 6.0585938 7.1113281 L 3.6972656 7.1132812 C 2.8562656 7.1152812 2.0597188 7.3818125 1.3867188 7.8828125 C 0.49371875 8.5458125 -1.4802974e-16 9.5256719 0 10.638672 L 0 18.689453 C 0 19.148453 0.0821875 19.581563 0.2421875 19.976562 C 0.0971875 20.252562 0.015625 20.567391 0.015625 20.900391 L 0.015625 23.654297 C 0.015625 24.753297 0.90685938 25.644531 2.0058594 25.644531 L 2.9414062 25.644531 L 3.9882812 25.644531 C 5.1672813 25.644531 6.3914062 25.645437 7.4414062 25.648438 C 7.4364063 25.706437 7.4335937 25.766172 7.4335938 25.826172 L 7.4335938 28.619141 C 7.4335938 29.453141 7.9468281 30.166891 8.6738281 30.462891 L 8.6738281 35.007812 C 8.6738281 35.054812 8.6747344 35.101438 8.6777344 35.148438 C 8.7277344 35.863438 9.0008438 36.512297 9.4648438 37.029297 L 9.5332031 37.105469 C 9.5012031 37.123469 9.4695 37.141109 9.4375 37.162109 C 8.9655 36.953109 8.4549219 36.847656 7.9199219 36.847656 L 7.9101562 36.847656 L 5.7851562 36.849609 L 3.6601562 36.847656 C 2.7981562 36.847656 1.9811094 37.137547 1.2871094 37.685547 C 0.44810938 38.351547 -0.005140625 39.299422 0.005859375 40.357422 C 0.009859375 40.696422 0.0078125 41.263922 0.0078125 41.794922 L 0.0078125 42.298828 C 0.0078125 42.645828 0.09790625 42.971859 0.25390625 43.255859 C 0.07290625 43.692859 -0.015046875 44.172781 0.001953125 44.675781 C 0.021953125 45.244781 0.0118125 47.397984 0.0078125 48.208984 L 0.005859375 48.5 C 0.001859375 49.652 0.501875 50.386781 0.921875 50.800781 C 1.696875 51.563781 2.6498281 51.969609 3.6738281 51.974609 C 4.4328281 51.976609 5.2813906 51.976563 6.1503906 51.976562 L 7.9511719 51.976562 L 9.5800781 51.976562 C 9.9740781 51.976562 10.341391 51.862063 10.650391 51.664062 C 11.119391 51.870063 11.628016 51.976563 12.166016 51.976562 L 14.283203 51.972656 C 14.893203 51.972656 15.503281 51.973563 16.113281 51.976562 C 17.018281 51.976562 17.841078 51.676031 18.580078 51.082031 C 19.278078 51.663031 20.120875 51.970609 21.046875 51.974609 L 24.947266 51.978516 C 25.800266 51.978516 26.584062 51.725563 27.289062 51.226562 C 27.910062 51.697562 28.684484 51.976562 29.521484 51.976562 L 37.021484 51.976562 C 37.037484 51.976562 37.052359 51.973656 37.068359 51.972656 C 37.061359 52.086656 37.057828 52.195359 37.048828 52.318359 C 37.010828 52.824359 36.975688 53.391016 37.054688 54.041016 C 37.054688 54.051016 37.051734 54.060312 37.052734 54.070312 C 37.056734 54.126312 37.073078 54.173562 37.080078 54.226562 C 37.091078 54.296563 37.095375 54.363547 37.109375 54.435547 C 37.113375 54.454547 37.125859 54.468328 37.130859 54.486328 C 37.433859 55.603328 38.549234 56.209422 39.615234 56.232422 C 39.635234 56.232422 39.655781 56.234375 39.675781 56.234375 C 40.265781 56.234375 40.872656 56.044344 41.347656 55.652344 C 41.794656 55.331344 42.122594 54.817141 42.183594 54.119141 C 42.522594 54.236141 42.891531 54.442484 43.269531 54.771484 L 44.363281 56.845703 L 46.46875 60.832031 C 46.81475 61.488031 47.496281 61.898438 48.238281 61.898438 L 50.246094 61.898438 C 51.026094 61.898438 51.7355 61.445328 52.0625 60.736328 L 54.365234 55.744141 L 54.613281 55.208984 C 55.142281 54.605984 55.667719 54.280141 56.136719 54.119141 C 56.196719 54.816141 56.52375 55.329391 56.96875 55.650391 C 57.44375 56.044391 58.051578 56.234375 58.642578 56.234375 C 58.662578 56.234375 58.681172 56.232422 58.701172 56.232422 C 59.775172 56.210422 60.899359 55.596844 61.193359 54.464844 C 61.195359 54.454844 61.201125 54.445547 61.203125 54.435547 C 61.211125 54.395547 61.213703 54.359312 61.220703 54.320312 C 61.236703 54.236312 61.260578 54.159312 61.267578 54.070312 C 61.268578 54.054313 61.262719 54.039437 61.261719 54.023438 C 61.337719 53.380437 61.303625 52.820359 61.265625 52.318359 C 61.233625 51.890359 61.205813 51.520828 61.257812 51.173828 C 61.328812 50.701828 61.470141 50.412422 61.619141 50.107422 C 62.167141 48.984422 62.206328 48.194281 60.986328 46.488281 C 60.958328 46.449281 60.927531 46.413906 60.894531 46.378906 C 60.414531 45.877906 59.875594 45.436391 59.308594 45.025391 C 59.315594 45.011391 59.322078 44.996422 59.330078 44.982422 C 59.458078 44.736422 59.584516 44.490906 59.728516 44.253906 C 59.944516 43.897906 60.154141 43.593312 60.369141 43.320312 C 60.639141 42.979312 60.874828 42.891516 61.048828 42.853516 C 61.217828 42.817516 61.405281 42.798828 61.613281 42.798828 L 61.705078 42.800781 L 61.857422 42.802734 L 62.029297 42.800781 C 63.122297 42.784781 64 41.893781 64 40.800781 L 64 38.835938 C 64 37.731938 63.105 36.835938 62 36.835938 L 54.082031 36.835938 C 54.534031 36.241937 54.785344 35.524422 54.777344 34.732422 L 54.777344 29.328125 C 54.777344 29.206125 54.765141 29.087656 54.744141 28.972656 C 54.765141 28.856656 54.777344 28.738187 54.777344 28.617188 L 54.777344 25.830078 C 54.777344 24.731078 53.886109 23.839844 52.787109 23.839844 L 51.117188 23.837891 L 50.365234 23.837891 C 50.035234 23.196891 49.368656 22.756859 48.597656 22.755859 L 45.351562 22.753906 L 45.349609 22.753906 C 44.872609 22.753906 44.413688 22.924422 44.054688 23.232422 C 43.972687 23.222422 43.888688 23.216797 43.804688 23.216797 L 43.802734 23.216797 C 43.320734 23.217797 41.709484 23.21875 40.271484 23.21875 C 39.433484 23.21875 38.653359 23.218797 38.193359 23.216797 L 38.177734 23.216797 C 37.314734 23.216797 36.551344 23.438906 35.902344 23.878906 C 35.258344 23.443906 34.498781 23.216797 33.675781 23.216797 L 33.667969 23.216797 L 31.951172 23.216797 L 29.626953 23.216797 C 28.764953 23.216797 27.974547 23.462547 27.310547 23.935547 C 26.674547 23.482547 25.930141 23.244281 25.119141 23.238281 C 25.001141 23.237281 24.862984 23.237328 24.708984 23.236328 C 24.708984 22.856328 24.708031 22.498328 24.707031 22.236328 L 25.525391 22.236328 L 26.921875 22.236328 L 26.931641 22.236328 C 27.086641 22.235328 27.238812 22.217594 27.382812 22.183594 C 27.533812 22.220594 27.689563 22.240234 27.851562 22.240234 L 31.226562 22.240234 C 31.368562 22.240234 31.506625 22.225266 31.640625 22.197266 C 31.774625 22.225266 31.914641 22.240234 32.056641 22.240234 L 35.441406 22.240234 C 35.841406 22.240234 36.213391 22.121969 36.525391 21.917969 C 37.016391 22.131969 37.539844 22.240234 38.089844 22.240234 L 43.802734 22.240234 C 44.901734 22.240234 45.792969 21.349 45.792969 20.25 L 45.792969 6.6230469 C 45.792969 5.5240469 44.901734 4.6347656 43.802734 4.6347656 L 40.509766 4.6347656 z M 40.509766 6.6230469 L 43.806641 6.6230469 L 43.806641 20.251953 L 38.097656 20.251953 L 38.09375 20.251953 C 37.61875 20.251953 37.205938 20.090828 36.835938 19.798828 C 36.525937 19.553828 36.368047 19.233266 36.373047 18.822266 L 36.373047 10.695312 C 36.373047 9.8933125 36.782781 9.3579688 37.550781 9.1679688 C 37.726781 9.1249688 37.913703 9.1045156 38.095703 9.1035156 L 40.509766 9.1015625 L 40.509766 6.6230469 z M 25.251953 9.0996094 L 25.257812 9.0996094 C 25.741813 9.0996094 26.151813 9.2766562 26.507812 9.5976562 C 26.770813 9.8346563 26.917828 10.137953 26.923828 10.501953 L 26.923828 20.246094 C 26.017828 20.246094 24.973172 20.246094 23.951172 20.246094 C 22.928172 20.246094 21.928469 20.246047 21.105469 20.248047 L 21.09375 20.248047 C 20.60875 20.248047 20.1865 20.092109 19.8125 19.787109 C 19.5025 19.534109 19.333937 19.211063 19.335938 18.789062 C 19.344938 17.438062 19.342891 16.081609 19.337891 14.724609 C 19.336891 14.403609 19.442203 14.138016 19.658203 13.916016 C 20.054203 13.507016 20.517844 13.271484 21.089844 13.271484 L 21.130859 13.271484 L 23.521484 13.273438 L 23.521484 11.90625 L 22.728516 11.90625 L 22.728516 12.535156 L 19.339844 12.535156 L 19.339844 10.476562 C 19.339844 10.175562 19.453344 9.9190781 19.652344 9.7050781 C 20.015344 9.3170781 20.455281 9.1015625 20.988281 9.1015625 C 21.766281 9.1025625 22.546219 9.1035156 23.324219 9.1035156 C 23.967219 9.1035156 24.608953 9.1016094 25.251953 9.0996094 z M 3.6992188 9.1015625 C 4.2962187 9.1015625 5.1645937 9.1015625 6.0585938 9.1015625 C 7.8455937 9.1015625 9.7304688 9.1015625 9.7304688 9.1015625 C 9.7304688 13.880562 9.734375 19.639594 9.734375 22.183594 C 9.734375 22.636594 9.5442656 22.971422 9.1972656 23.232422 C 8.8132656 23.522422 8.3843437 23.658203 7.9023438 23.658203 L 7.8964844 23.658203 C 6.7554844 23.655203 5.3442344 23.654297 3.9902344 23.654297 L 2.0078125 23.654297 L 2.0078125 20.900391 L 6.2753906 20.900391 L 6.2753906 20.207031 L 3.8730469 20.207031 C 3.4170469 20.207031 2.9962812 20.093844 2.6132812 19.839844 C 2.1982812 19.565844 1.9902344 19.2005 1.9902344 18.6875 L 1.9902344 10.636719 C 1.9902344 10.138719 2.1832187 9.7665625 2.5742188 9.4765625 C 2.9092187 9.2275625 3.2852188 9.1025625 3.6992188 9.1015625 z M 10.664062 9.1015625 L 16.726562 9.1015625 C 17.287562 9.1015625 17.742094 9.3402344 18.121094 9.7402344 C 18.322094 9.9532344 18.40525 10.217906 18.40625 10.503906 C 18.41025 11.643906 18.406203 12.781875 18.408203 13.921875 C 18.408203 14.146875 18.314812 14.319312 18.132812 14.445312 C 18.092813 14.474312 18.052609 14.501078 17.974609 14.580078 C 18.004609 14.587078 18.037547 14.584563 18.060547 14.601562 C 18.255547 14.744563 18.356719 14.943688 18.386719 15.179688 C 18.400719 15.292687 18.408203 15.405531 18.408203 15.519531 C 18.409203 16.727531 18.410156 20.071781 18.410156 22.050781 L 22.71875 22.050781 C 22.71975 22.735781 22.720703 24.779516 22.720703 25.228516 L 23.773438 25.228516 C 24.298437 25.228516 24.783422 25.227469 25.107422 25.230469 C 25.656422 25.234469 26.117328 25.448516 26.486328 25.853516 C 26.676328 26.061516 26.767437 26.311797 26.773438 26.591797 C 26.770437 26.642797 26.769531 36.359375 26.769531 36.359375 L 23.558594 36.359375 L 23.558594 28.113281 L 22.714844 28.113281 L 22.716797 36.359375 L 19.349609 36.359375 L 19.349609 24.898438 L 16.632812 24.898438 C 16.104813 24.898438 15.663016 24.693078 15.291016 24.330078 C 15.056016 24.102078 14.945266 23.828141 14.947266 23.494141 C 14.948266 23.244141 14.947266 22.923172 14.947266 22.576172 C 14.948266 20.232172 14.947266 16.1485 14.947266 16.0625 L 14.109375 16.0625 L 14.109375 21.484375 L 10.664062 21.484375 L 10.664062 9.1015625 z M 33.697266 9.1035156 C 33.747266 9.1035156 33.797656 9.1044688 33.847656 9.1054688 C 34.387656 9.1224687 34.826547 9.3675781 35.185547 9.7675781 C 35.361547 9.9645781 35.432406 10.211563 35.441406 10.476562 L 35.441406 10.626953 L 35.441406 20.253906 L 32.056641 20.253906 L 32.054688 11.916016 L 31.234375 11.916016 L 31.226562 20.253906 L 27.851562 20.253906 C 27.853562 20.250906 27.853516 12.836094 27.853516 9.1210938 L 31.226562 9.1210938 L 31.226562 9.7519531 C 31.268563 9.7459531 31.291688 9.7492812 31.304688 9.7382812 C 31.890687 9.3142813 32.562766 9.1711406 33.259766 9.1191406 C 33.404766 9.1091406 33.550266 9.1035156 33.697266 9.1035156 z M 39.671875 11.853516 L 39.671875 17.5625 L 40.453125 17.5625 L 40.453125 11.853516 L 39.671875 11.853516 z M 14.123047 11.900391 L 14.123047 13.228516 L 14.910156 13.228516 L 14.910156 11.900391 L 14.123047 11.900391 z M 5.4648438 11.904297 L 5.4648438 17.445312 L 6.2636719 17.445312 L 6.2636719 11.904297 L 5.4648438 11.904297 z M 22.722656 16.074219 L 22.722656 17.46875 L 23.498047 17.46875 L 23.498047 16.074219 L 22.722656 16.074219 z M 10.658203 23.96875 L 13.904297 23.96875 L 13.904297 25.824219 C 15.302297 25.824219 16.709656 25.828125 18.097656 25.828125 L 18.097656 28.617188 L 13.949219 28.617188 L 13.949219 33.509766 L 14.742188 33.509766 L 14.742188 31.423828 L 14.742188 29.330078 L 18.097656 29.330078 L 18.097656 34.753906 C 18.102656 35.268906 17.906672 35.649406 17.513672 35.941406 C 17.146672 36.214406 16.743109 36.361328 16.287109 36.361328 L 16.277344 36.361328 L 12.382812 36.357422 C 11.813813 36.355422 11.333312 36.130219 10.945312 35.699219 C 10.769312 35.503219 10.682063 35.271812 10.664062 35.007812 L 10.664062 28.619141 L 9.4257812 28.619141 L 9.4257812 25.826172 L 10.658203 25.826172 L 10.658203 23.96875 z M 45.349609 24.744141 L 48.595703 24.746094 L 48.595703 25.826172 C 48.872703 25.826172 49.149734 25.826172 49.427734 25.826172 C 50.550734 25.826172 51.674156 25.828125 52.785156 25.828125 L 52.785156 28.617188 L 48.640625 28.617188 L 48.640625 33.507812 L 49.433594 33.507812 L 49.433594 31.423828 L 49.433594 29.328125 L 52.787109 29.328125 L 52.787109 34.751953 C 52.792109 35.266953 52.596125 35.647453 52.203125 35.939453 C 51.836125 36.212453 51.436469 36.361328 50.980469 36.361328 L 50.966797 36.361328 L 47.072266 36.361328 C 46.503266 36.358328 46.024719 36.128266 45.636719 35.697266 C 45.460719 35.501266 45.373469 35.271813 45.355469 35.007812 L 45.355469 28.617188 L 44.425781 28.617188 L 44.425781 25.826172 L 45.349609 25.826172 L 45.349609 24.744141 z M 29.617188 25.207031 L 29.623047 25.207031 C 30.399047 25.208031 31.175172 25.208984 31.951172 25.208984 C 32.524172 25.208984 33.096922 25.208031 33.669922 25.207031 L 33.675781 25.207031 C 34.188781 25.207031 34.641438 25.362797 35.023438 25.716797 C 35.302438 25.972797 35.441453 26.285781 35.439453 26.675781 L 35.4375 32.1875 L 31.248047 32.1875 L 31.248047 33.570312 L 32.050781 33.570312 L 32.050781 32.886719 L 35.439453 32.886719 C 35.439453 33.539719 35.439406 34.433797 35.441406 34.966797 C 35.442406 35.308797 35.311406 35.589547 35.066406 35.810547 C 34.679406 36.160547 34.231031 36.359375 33.707031 36.359375 L 33.701172 36.359375 C 32.958172 36.358375 32.216609 36.357422 31.474609 36.357422 C 30.861609 36.357422 30.247766 36.358375 29.634766 36.359375 L 29.623047 36.359375 C 29.127047 36.359375 28.692594 36.193953 28.308594 35.876953 C 28.008594 35.629953 27.855469 35.315016 27.855469 34.916016 L 27.855469 26.660156 L 27.853516 26.660156 C 27.853516 26.290156 27.992859 25.981422 28.255859 25.732422 C 28.640859 25.368422 29.098188 25.207031 29.617188 25.207031 z M 38.177734 25.207031 L 38.185547 25.207031 C 38.647547 25.209031 39.429484 25.210937 40.271484 25.210938 C 41.710484 25.210938 43.324641 25.208031 43.806641 25.207031 L 43.806641 27.996094 L 39.710938 27.996094 L 39.710938 28.679688 L 43.806641 28.679688 L 43.806641 31.402344 L 39.710938 31.402344 L 39.710938 36.359375 L 36.371094 36.359375 L 36.371094 27.476562 C 36.371094 27.207563 36.372094 26.937969 36.371094 26.667969 C 36.368094 26.288969 36.509391 25.979562 36.775391 25.726562 C 37.173391 25.348562 37.647734 25.207031 38.177734 25.207031 z M 31.248047 28.025391 L 31.248047 29.361328 L 32.046875 29.361328 L 32.046875 28.025391 L 31.248047 28.025391 z M 40.863281 32.642578 L 43.960938 32.642578 L 43.960938 34.810547 C 43.960938 35.430547 44.064047 35.822625 44.373047 36.265625 C 44.392047 36.292625 44.425781 36.355469 44.425781 36.355469 L 40.863281 36.359375 L 40.863281 32.642578 z M 19.332031 38.369141 L 22.578125 38.371094 L 22.578125 39.451172 C 23.976125 39.451172 25.383484 39.455078 26.771484 39.455078 L 26.771484 42.242188 L 26.769531 42.242188 L 22.623047 42.242188 L 22.623047 47.134766 L 23.416016 47.134766 L 23.416016 45.048828 L 23.416016 42.955078 L 26.769531 42.955078 L 26.769531 48.378906 C 26.774531 48.893906 26.578547 49.274406 26.185547 49.566406 C 25.818547 49.839406 25.416938 49.986328 24.960938 49.986328 L 24.949219 49.986328 L 21.054688 49.982422 C 20.485688 49.979422 20.007141 49.755219 19.619141 49.324219 C 19.443141 49.128219 19.355891 48.896812 19.337891 48.632812 L 19.337891 42.244141 L 18.408203 42.244141 L 18.408203 39.451172 L 19.332031 39.451172 L 19.332031 38.369141 z M 29.435547 38.808594 L 33.785156 38.808594 C 33.785156 38.819594 33.78125 38.830797 33.78125 38.841797 L 33.78125 40.832031 C 33.78125 41.826031 34.507031 42.643828 35.457031 42.798828 L 35.457031 48.40625 C 35.457031 49.27825 34.749953 49.986328 33.876953 49.986328 L 29.519531 49.986328 C 28.573531 49.986328 27.808594 49.218438 27.808594 48.273438 L 27.808594 40.4375 C 27.808594 39.5385 28.536547 38.808594 29.435547 38.808594 z M 3.6523438 38.835938 L 3.6582031 38.835938 C 4.3682031 38.836937 5.0781094 38.837891 5.7871094 38.837891 C 6.4961094 38.837891 7.2050625 38.836938 7.9140625 38.835938 L 7.9199219 38.835938 C 8.4409219 38.835938 8.8742344 39.039109 9.2402344 39.412109 C 9.4682344 39.645109 9.578125 39.932719 9.578125 40.261719 C 9.579125 43.289719 9.5800781 46.904328 9.5800781 49.986328 C 8.5230781 49.986328 7.3193438 49.986328 6.1523438 49.986328 C 5.2843437 49.986328 4.4365937 49.986375 3.6835938 49.984375 C 3.1495937 49.981375 2.6983594 49.758766 2.3183594 49.384766 C 2.0783594 49.147766 1.9950938 48.843766 1.9960938 48.509766 C 1.9990937 47.895766 2.0161875 45.294375 1.9921875 44.609375 C 1.9751875 44.082375 2.1928906 43.705203 2.5878906 43.408203 C 2.9308906 43.150203 3.3053281 43.009766 3.7363281 43.009766 L 3.7695312 43.009766 L 6.1914062 43.009766 L 6.1914062 41.644531 L 5.3828125 41.644531 L 5.3828125 42.298828 L 1.9980469 42.298828 C 1.9980469 41.651828 2.0010937 40.790937 1.9960938 40.335938 C 1.9910938 39.877938 2.1734844 39.522094 2.5214844 39.246094 C 2.8554844 38.982094 3.2263437 38.835938 3.6523438 38.835938 z M 14.535156 38.835938 L 17.789062 38.835938 L 17.789062 48.566406 L 17.787109 48.566406 C 17.790109 48.955406 17.657953 49.259141 17.376953 49.494141 C 17.012953 49.799141 16.607813 49.986328 16.132812 49.986328 L 16.123047 49.986328 C 15.510047 49.983328 14.898156 49.982422 14.285156 49.982422 C 13.579156 49.982422 12.873969 49.984328 12.167969 49.986328 C 11.628969 49.986328 11.177641 49.774281 10.806641 49.363281 C 10.612641 49.147281 10.511719 48.894797 10.511719 48.591797 C 10.512719 45.703797 10.513672 41.902844 10.513672 38.839844 C 11.612672 38.843844 12.966812 38.849609 13.757812 38.849609 L 13.757812 47.203125 L 14.533203 47.203125 L 14.535156 38.835938 z M 51.945312 38.835938 L 62 38.835938 L 62 40.800781 C 62 40.800781 61.927469 40.800781 61.855469 40.800781 C 61.819469 40.800781 61.782859 40.801781 61.755859 40.800781 C 61.707859 40.799781 61.660328 40.798828 61.611328 40.798828 C 61.277328 40.798828 60.946141 40.828438 60.619141 40.898438 C 59.860141 41.064437 59.265922 41.490937 58.794922 42.085938 C 58.513922 42.443937 58.255531 42.823891 58.019531 43.212891 C 57.868531 43.459891 57.733609 43.715656 57.599609 43.972656 C 56.685609 43.510656 55.689422 43.135516 54.607422 42.853516 C 54.658422 42.612516 54.681344 42.366281 54.652344 42.113281 C 54.614344 41.777281 54.452688 41.515359 54.179688 41.318359 C 53.841687 41.073359 53.457828 40.939813 53.048828 40.882812 C 52.740828 40.837812 52.430141 40.826781 52.119141 40.800781 C 52.066141 40.796781 52.010359 40.795016 51.943359 40.791016 C 51.943359 40.137016 51.944312 38.835938 51.945312 38.835938 z M 35.78125 38.841797 L 49.949219 38.841797 L 49.949219 40.822266 L 49.707031 40.822266 C 49.661031 40.821266 49.613406 40.820312 49.566406 40.820312 C 49.497406 40.820312 49.428375 40.827078 49.359375 40.830078 C 49.305375 40.832078 49.251266 40.833891 49.197266 40.837891 L 49.193359 40.837891 C 49.039359 40.848891 48.887328 40.86925 48.736328 40.90625 C 48.584328 40.94425 48.428109 40.9935 48.287109 41.0625 C 47.791109 41.3055 47.596094 41.725953 47.621094 42.251953 C 44.632094 42.442953 42.100062 43.145703 40.039062 44.345703 C 39.714062 43.780703 39.393688 43.214203 39.054688 42.658203 C 38.867688 42.353203 38.640969 42.070109 38.417969 41.787109 C 38.173969 41.480109 37.894172 41.241125 37.576172 41.078125 C 37.258172 40.915125 36.900953 40.831078 36.501953 40.830078 L 36.265625 40.830078 L 35.78125 40.830078 L 35.78125 38.841797 z M 31.253906 41.640625 L 31.253906 47.185547 L 32.037109 47.185547 L 32.037109 41.640625 L 31.253906 41.640625 z M 49.134766 43.189453 C 49.140766 43.189453 49.146344 43.189453 49.152344 43.189453 C 49.158344 43.189453 49.165875 43.189453 49.171875 43.189453 C 53.890875 43.223453 57.632922 44.424313 60.169922 47.070312 C 61.773922 49.316313 60.553625 49.121391 60.265625 51.025391 C 60.112625 52.040391 60.46175 52.983094 60.21875 54.246094 C 60.45775 50.418094 54.758297 48.683875 49.154297 48.671875 C 43.550297 48.684875 37.850844 50.418094 38.089844 54.246094 C 37.846844 52.982094 38.195969 52.039391 38.042969 51.025391 C 37.755969 49.121391 36.534672 49.316312 38.138672 47.070312 C 40.675672 44.424312 44.417766 43.223453 49.134766 43.189453 z M 47.921875 44.402344 C 47.254875 44.431969 46.598453 44.490078 45.939453 44.580078 C 45.825453 44.596078 45.711656 44.616766 45.597656 44.634766 L 45.554688 44.640625 L 45.554688 44.824219 C 45.589687 44.824219 45.620344 44.825125 45.652344 44.828125 C 46.031344 44.855125 46.327078 45.144422 46.330078 45.482422 C 46.335078 45.860422 46.336891 46.051688 46.337891 46.429688 L 46.337891 46.945312 C 46.339891 47.096313 46.292266 47.238188 46.197266 47.367188 C 46.043266 47.574188 45.852859 47.716062 45.630859 47.789062 C 45.609859 47.795063 45.591266 47.802594 45.572266 47.808594 L 45.572266 47.982422 C 46.635266 47.826422 47.629859 47.739797 48.630859 47.716797 C 48.629859 47.692797 48.628953 47.560063 48.626953 47.539062 C 48.135953 47.489063 47.838891 47.170594 47.837891 46.683594 C 47.837891 46.683594 47.828125 45.977938 47.828125 45.460938 C 47.828125 45.107937 48.084656 44.5625 48.597656 44.5625 C 48.899656 44.5625 49.120266 44.934172 49.197266 45.076172 L 50.482422 47.757812 L 51.466797 47.824219 C 51.501797 47.743219 52.590156 45.232672 52.660156 45.138672 C 52.840156 44.895672 53.090484 44.874062 53.271484 44.914062 C 53.737484 45.018062 53.763437 45.488656 53.773438 45.597656 C 53.779438 45.673656 53.782344 46.892641 53.777344 47.306641 C 53.775344 47.689641 53.600891 47.861328 53.212891 47.861328 L 53.011719 47.861328 L 53.011719 48.03125 C 53.990719 48.15225 55.149922 48.384719 56.919922 49.136719 L 56.919922 47.550781 C 56.857922 47.524781 56.833281 47.534078 56.738281 47.580078 C 56.670281 47.612078 55.21875 48.330078 55.21875 48.330078 L 55.21875 46.945312 L 55.982422 47.660156 L 55.982422 46.451172 L 55.21875 46.744141 L 55.21875 45.380859 C 55.21775 45.377859 55.954156 46.0845 56.785156 46.9375 C 56.837156 46.9895 56.873922 47.019109 56.919922 47.037109 L 56.919922 45.857422 C 56.919922 45.810422 56.915047 45.803109 56.873047 45.787109 C 56.754047 45.741109 56.636578 45.694484 56.517578 45.646484 C 56.341578 45.574484 56.167281 45.505406 55.988281 45.441406 C 55.738281 45.353406 55.411797 45.249406 55.216797 45.191406 C 53.697797 44.733406 52.001844 44.492297 49.964844 44.404297 C 49.266844 44.372797 48.588875 44.372719 47.921875 44.402344 z M 51.460938 44.679688 C 51.699937 44.696688 51.934375 44.820219 52.109375 45.074219 C 52.199375 45.206219 52.216109 45.366953 52.162109 45.501953 L 51.470703 47.054688 L 50.824219 45.695312 C 50.773219 45.581313 50.720875 45.467516 50.671875 45.353516 C 50.582875 45.146516 50.614344 45.022813 50.777344 44.882812 C 51.007344 44.689813 51.234938 44.661687 51.460938 44.679688 z M 45.230469 44.689453 L 44.878906 44.751953 C 44.530906 44.816953 44.183938 44.877219 43.835938 44.949219 C 42.859938 45.147219 41.990687 45.437844 41.179688 45.839844 C 41.146687 45.856844 41.072547 45.892203 41.060547 45.908203 C 41.059547 45.915203 41.066406 46.085937 41.066406 46.085938 C 41.298406 46.034937 41.486047 46.061969 41.623047 46.167969 C 41.765047 46.280969 41.839844 46.473187 41.839844 46.742188 C 41.839844 46.742188 41.840797 47.587563 41.841797 47.851562 C 41.842797 48.339562 41.616922 48.721234 41.169922 48.990234 C 41.143922 49.005234 41.101547 49.029734 41.060547 49.052734 L 41.060547 49.238281 C 42.185547 48.754281 43.32325 48.400156 44.53125 48.160156 L 44.53125 47.984375 C 44.51025 47.985375 44.486937 47.987375 44.460938 47.984375 L 44.382812 47.980469 C 44.246812 47.974469 44.101891 47.966688 43.962891 47.929688 C 43.683891 47.853687 43.554687 47.686391 43.554688 47.400391 L 43.554688 46.705078 L 44.339844 47.142578 L 44.34375 45.951172 L 43.554688 46.533203 L 43.556641 45.201172 L 45.230469 46.138672 L 45.230469 44.689453 z M 5.3964844 45.814453 L 5.3964844 47.203125 L 6.1914062 47.203125 L 6.1914062 45.814453 L 5.3964844 45.814453 z M 49.15625 49.669922 C 49.61025 49.670922 50.052234 49.689891 50.490234 49.712891 L 51.101562 51.226562 L 51.707031 49.810547 C 52.773031 49.919547 53.768156 50.090172 54.660156 50.326172 C 53.181156 53.527172 51.716141 56.709438 50.244141 59.898438 L 48.236328 59.898438 C 46.578328 56.758437 44.915188 53.608406 43.242188 50.441406 C 44.896188 49.954406 46.92625 49.674922 49.15625 49.669922 z M 56.556641 50.992188 C 57.361641 51.355187 58.031328 51.777672 58.486328 52.263672 C 58.978328 52.788672 59.208891 53.361906 59.212891 54.003906 C 59.166891 54.784906 58.633922 55.063781 58.169922 55.050781 C 57.955922 55.047781 57.745453 54.970797 57.564453 54.841797 C 57.349453 54.644797 57.189906 54.362562 57.128906 53.976562 C 57.517906 54.000563 57.768922 54.109094 57.794922 54.121094 C 58.040922 54.238094 58.338078 54.130812 58.455078 53.882812 C 58.574078 53.633812 58.469703 53.334797 58.220703 53.216797 C 57.684703 52.959797 56.626422 52.806312 55.482422 53.320312 L 56.556641 50.992188 z M 41.363281 51.164062 C 41.364281 51.166063 41.366187 51.168875 41.367188 51.171875 L 42.414062 53.154297 C 41.435063 52.844297 40.56175 52.991797 40.09375 53.216797 C 39.84475 53.334797 39.738422 53.633812 39.857422 53.882812 C 39.974422 54.131813 40.274438 54.237141 40.523438 54.119141 C 40.529438 54.116141 40.7855 54.002516 41.1875 53.978516 C 41.1235 54.379516 40.946844 54.665281 40.714844 54.863281 C 40.541844 54.975281 40.346484 55.048781 40.146484 55.050781 C 39.694484 55.057781 39.147562 54.784953 39.101562 54.001953 C 39.101562 53.996953 39.098656 53.991328 39.097656 53.986328 C 39.105656 53.350328 39.336219 52.782719 39.824219 52.261719 C 40.206219 51.853719 40.729281 51.487063 41.363281 51.164062 z"/></svg>